<?xml version="1.0" encoding="utf-8"?>
<!-- Generator: Adobe Illustrator 16.0.0, SVG Export Plug-In . SVG Version: 6.00 Build 0)  -->
<!DOCTYPE svg PUBLIC "-//W3C//DTD SVG 1.1//EN" "http://www.w3.org/Graphics/SVG/1.1/DTD/svg11.dtd">
<svg version="1.1" id="Capa_1" xmlns="http://www.w3.org/2000/svg" xmlns:xlink="http://www.w3.org/1999/xlink" x="0px" y="0px"
	 width="512px" height="512px" viewBox="0 0 512 512" enable-background="new 0 0 512 512" xml:space="preserve">
<g transform="translate(0.000000,512.000000) scale(0.100000,-0.100000)">
	<path fill="#B562FB" d="M2582.995,2698L1581.003,1695.998l-3.008,527.998l-2.998,528.008l-27.998,23.994
		c-34.004,29.004-65.996,31.006-100.996,2.998l-26.006-20v-650c0-635.996,0-648.994,20-668.994s32.998-20,669.004-20h650l20,25.996
		c27.998,35,25.996,67.002-2.998,100.996l-24.004,28.008L2224.001,1578l-527.998,2.998L2697.995,2583
		c954.004,955,1002.002,1004.004,1002.002,1037.998c0,46.006-32.998,79.004-80.996,79.004
		C3586.999,3700.002,3521.999,3637.004,2582.995,2698z"/>
</g>
</svg>
