<?xml version="1.0" encoding="utf-8"?>
<!-- Generator: Adobe Illustrator 16.0.0, SVG Export Plug-In . SVG Version: 6.00 Build 0)  -->
<!DOCTYPE svg PUBLIC "-//W3C//DTD SVG 1.1//EN" "http://www.w3.org/Graphics/SVG/1.1/DTD/svg11.dtd">
<svg version="1.1" id="Capa_1" xmlns="http://www.w3.org/2000/svg" xmlns:xlink="http://www.w3.org/1999/xlink" x="0px" y="0px"
	 width="52.25px" height="43.5px" viewBox="0 0 52.25 43.5" enable-background="new 0 0 52.25 43.5" xml:space="preserve">
<g transform="translate(0.000000,512.000000) scale(0.100000,-0.100000)">
	<path fill="#FFFFFF" d="M62.341,5087.78c-17.026-4.551-29.893-18.706-32.666-36.025c-1.484-8.911-1.484-295.942,0-304.858
		c2.773-17.412,15.84-31.572,33.062-36.123c5.146-1.289,28.604-1.484,198.452-1.484s193.306,0.195,198.452,1.484
		c17.217,4.551,30.283,18.711,33.057,36.123c1.484,8.916,1.484,295.947,0,304.858c-2.773,17.417-15.84,31.572-33.057,36.128
		c-5.146,1.284-28.506,1.484-198.95,1.382C95.3,5089.265,66.892,5089.069,62.341,5087.78z M458.645,5066.008
		c5.352-2.871,9.307-6.929,11.484-11.777c1.484-3.169,1.885-6.436,1.885-16.035v-12.178H370.959H269.895l-26.724-10.391
		l-26.821-10.391h-82.944H50.364v22.563c0,19.697,0.298,22.964,1.88,26.431c2.969,6.631,9.204,11.68,16.431,13.457
		c1.685,0.4,89.18,0.596,194.492,0.596l191.523-0.195L458.645,5066.008z M472.014,4876.857c0-122.529-0.098-128.672-1.885-132.432
		c-2.178-4.854-6.133-8.906-11.484-11.777l-3.955-2.08H261.189H67.683l-3.96,2.08c-5.342,2.871-9.302,6.924-11.479,11.777
		c-1.782,3.76-1.88,9.6-1.88,122.041v117.983h85.42h85.415l26.133,10.293l26.226,10.293l99.277,0.098l99.18,0.103V4876.857z"/>
	<path fill="#FFFFFF" d="M96.584,5044.826c-3.76-2.969-5.146-7.92-3.262-12.173c1.484-3.662,5.835-6.636,9.497-6.636
		s8.018,2.974,9.507,6.636c2.866,6.729-2.08,14.15-9.507,14.15C100.642,5046.804,98.069,5046.013,96.584,5044.826z"/>
	<path fill="#FFFFFF" d="M139.841,5045.715c-3.369-1.68-5.645-6.533-5.049-10.488c1.187-7.329,8.809-11.187,15.044-7.725
		c9.204,4.854,6.04,19.404-4.155,19.204C143.601,5046.706,141.028,5046.213,139.841,5045.715z"/>
	<path fill="#FFFFFF" d="M179.924,5043.933c-4.849-4.946-3.56-13.164,2.573-16.431c6.235-3.462,13.857,0.396,15.049,7.725
		C199.031,5044.826,186.853,5050.861,179.924,5043.933z"/>
	<path fill="#FFFFFF" d="M288.205,4940.305c-1.973-0.991-3.955-3.169-5.146-5.742c-3.955-8.213-62.749-145.693-63.54-148.76
		c-1.88-6.24,3.56-13.164,10.195-13.164c1.284,0,3.662,0.889,5.342,1.875c2.773,1.68,6.436,9.6,35.933,78.486
		c18.008,42.07,32.764,77.109,32.764,77.9c0,3.071-3.369,7.92-6.436,9.404C293.254,4942.282,292.17,4942.282,288.205,4940.305z"/>
	<path fill="#FFFFFF" d="M182.302,4919.519c-0.693-0.298-11.479-13.364-24.053-29.097c-23.853-29.795-25.439-32.568-22.764-37.715
		c0.693-1.289,11.084-14.453,22.964-29.395c23.755-29.6,25.435-31.084,32.168-28.809c3.857,1.191,7.222,5.84,7.222,9.902
		c0,3.369-1.777,5.938-20.586,29.395c-8.711,10.791-16.333,20.586-17.026,21.68c-1.284,1.875,0.103,3.955,17.72,25.83
		c20.488,25.737,21.777,27.915,18.311,33.657c-0.889,1.68-2.769,3.462-4.058,4.058
		C189.827,4920.114,184.48,4920.31,182.302,4919.519z"/>
	<path fill="#FFFFFF" d="M329.875,4919.025c-1.084-0.596-2.871-2.378-3.76-4.058c-3.467-5.742-2.178-7.92,18.311-33.657
		c17.617-21.875,19.004-23.955,17.715-25.83c-0.693-1.094-8.311-10.889-17.021-21.68c-18.809-23.457-20.586-26.025-20.586-29.395
		c0-4.063,3.369-8.711,7.227-9.902c6.729-2.275,8.408-0.791,32.168,28.809c11.875,14.941,22.266,28.105,22.959,29.395
		c2.676,5.146,1.094,7.92-22.764,37.617c-12.471,15.732-23.457,28.896-24.346,29.194
		C337.502,4920.407,332.258,4920.114,329.875,4919.025z"/>
</g>
</svg>
