<?xml version="1.0" encoding="utf-8"?>
<!-- Generator: Adobe Illustrator 16.0.0, SVG Export Plug-In . SVG Version: 6.00 Build 0)  -->
<!DOCTYPE svg PUBLIC "-//W3C//DTD SVG 1.1//EN" "http://www.w3.org/Graphics/SVG/1.1/DTD/svg11.dtd">
<svg version="1.1" id="Capa_2" xmlns="http://www.w3.org/2000/svg" xmlns:xlink="http://www.w3.org/1999/xlink" x="0px" y="0px"
	 width="36.5px" height="51.78px" viewBox="0 0 36.5 51.78" enable-background="new 0 0 36.5 51.78" xml:space="preserve">
<g>
	
		<polyline fill-rule="evenodd" clip-rule="evenodd" fill="none" stroke="#00E1C6" stroke-width="1.5" stroke-linecap="round" stroke-linejoin="round" stroke-miterlimit="10" points="
		11.404,19.932 18.5,12.782 25.594,19.932 	"/>
	
		<line fill-rule="evenodd" clip-rule="evenodd" fill="none" stroke="#00E1C6" stroke-width="1.5" stroke-linecap="round" stroke-linejoin="round" stroke-miterlimit="10" x1="18.5" y1="13.057" x2="18.5" y2="34.563"/>
	
		<line fill-rule="evenodd" clip-rule="evenodd" fill="none" stroke="#00E1C6" stroke-width="1.5" stroke-linecap="round" stroke-linejoin="round" stroke-miterlimit="10" x1="18.5" y1="38.357" x2="18.5" y2="39.952"/>
	
		<path fill-rule="evenodd" clip-rule="evenodd" fill="none" stroke="#00E1C6" stroke-width="1.5" stroke-linecap="round" stroke-linejoin="round" stroke-miterlimit="10" d="
		M18.5,2.002c0,0-13.08-0.355-16.144,13.819c-0.115,0.532-0.301,3.737-0.301,3.737v10.907c0,0,0.047,2.438,0.131,3.436
		c0.085,1.011,0.207,2.201,0.354,2.901c0.014,0.067,0.022,0.133,0.033,0.195c0.115,0.647,0.314,1.402,0.604,2.219
		C4.85,43.93,9.314,50.468,18.5,50.463c11.333-0.007,14.809-8.477,16.021-13.059c0.423-1.603,0.534-5.378,0.534-5.378V18.901
		c0,0-0.26-4.457-0.996-6.179C32.349,8.726,28.07,2.079,18.5,2.002z"/>
</g>
</svg>
