<?xml version="1.0" encoding="utf-8"?>
<!-- Generator: Adobe Illustrator 16.0.0, SVG Export Plug-In . SVG Version: 6.00 Build 0)  -->
<!DOCTYPE svg PUBLIC "-//W3C//DTD SVG 1.1//EN" "http://www.w3.org/Graphics/SVG/1.1/DTD/svg11.dtd">
<svg version="1.1" id="Capa_1" xmlns="http://www.w3.org/2000/svg" xmlns:xlink="http://www.w3.org/1999/xlink" x="0px" y="0px"
	 width="28.642px" height="35px" viewBox="0 0 28.642 35" enable-background="new 0 0 28.642 35" xml:space="preserve">
<g transform="translate(0.000000,512.000000) scale(0.100000,-0.100000)">
	<path fill="#FFFFFF" d="M122.747,5118.977c-2.666-1.504-3.418-3.691-3.486-10.112v-6.016H79.485l-39.849,0.068l-2.051,3.486
		c-7.993,13.872-28.564,13.052-35.674-1.367c-1.572-3.213-1.914-4.785-1.914-9.023s0.342-5.811,1.914-9.023
		c7.109-14.419,27.681-15.239,35.674-1.362l2.051,3.481l39.849,0.068h39.775v-5.806c0-6.563,0.957-9.16,3.76-10.459
		s38.071-1.162,40.601,0.137c2.666,1.436,3.486,3.828,3.486,10.322v5.806h39.844l39.775-0.068l2.051-3.481
		c8.203-14.15,29.248-12.92,36.152,2.114c1.982,4.375,1.982,12.168,0,16.543c-2.051,4.443-5.264,7.793-9.502,9.839
		c-9.766,4.854-21.318,1.504-26.65-7.72l-2.051-3.486l-39.775-0.068h-39.844v5.811c0,6.489-0.82,8.882-3.486,10.317
		C160.955,5120.344,125.208,5120.344,122.747,5118.977z M153.435,5096.013v-10.249h-10.254h-10.249v10.249v10.254h10.249h10.254
		V5096.013z M23.508,5101.892c4.58-2.393,4.443-9.775-0.273-11.895c-3.486-1.572-7.314-0.479-8.955,2.666
		C11.072,5098.884,17.288,5105.104,23.508,5101.892z M269.558,5101.892c4.58-2.393,4.443-9.775-0.273-11.895
		c-6.221-2.803-12.236,3.486-8.955,9.365C262.107,5102.575,266.072,5103.669,269.558,5101.892z"/>
	<path fill="#FFFFFF" d="M139.695,5056.032c-1.367-0.752-9.497-16.885-39.707-78.735c-20.913-42.788-38.203-78.394-38.408-79.214
		c-0.273-0.889,3.892-15.791,11.206-39.912c6.357-21.191,11.621-38.75,11.621-39.092c0-0.273-0.41-0.547-0.889-0.547
		c-1.709,0-8.066-4.922-10.391-8.066c-4.102-5.537-5.127-10.186-5.127-23.447c0-7.451,0.273-12.1,0.82-13.252
		c1.777-3.896-1.436-3.76,74.292-3.76c48.662,0,70.195,0.205,71.357,0.752c3.418,1.572,3.896,3.613,3.896,16.191
		c0,13.33-1.025,17.979-5.127,23.516c-2.324,3.145-8.682,8.066-10.391,8.066c-0.479,0-0.889,0.273-0.889,0.547
		c0,0.342,5.264,17.9,11.621,39.092c7.314,24.121,11.475,39.023,11.201,39.912c-0.195,0.82-17.49,36.426-38.408,79.214
		c-40.186,82.358-38.818,79.829-43.33,79.761C142.156,5056.989,140.652,5056.579,139.695,5056.032z M136.345,4967.043v-53.169
		l-3.071-1.23c-4.648-1.914-8.887-6.084-11.416-11.279c-2.051-4.102-2.256-5.127-2.256-10.391c0.068-4.785,0.342-6.494,1.846-9.639
		c4.717-10.176,15.239-15.713,25.972-13.594c10.117,1.982,16.68,8.33,19.004,18.379c2.461,10.459-3.623,22.49-13.33,26.523
		l-3.076,1.23l0.068,53.306l0.068,53.311l3.965-8.198c2.119-4.512,15.791-32.466,30.342-62.129l26.387-53.926l-11.484-37.793
		l-11.416-37.861h-44.766H98.416L87,4858.444l-11.479,37.793l30.278,61.924c16.606,34.102,30.278,61.987,30.41,61.987
		C136.282,5020.148,136.345,4996.228,136.345,4967.043z M147.693,4900.134c7.383-3.486,7.451-14.424,0.137-17.979
		c-3.76-1.777-5.469-1.777-9.229,0c-7.378,3.555-7.378,14.287-0.068,17.91C141.404,4901.501,144.753,4901.501,147.693,4900.134z
		 M198.132,4805.544c1.572-0.752,3.555-2.461,4.512-3.896c1.504-2.256,1.709-3.281,1.914-10.254l0.273-7.725H143.25H81.672v6.768
		c0,7.52,0.547,9.707,3.281,12.646c3.687,3.896,1.572,3.76,58.159,3.828C193.894,4806.911,195.466,4806.843,198.132,4805.544z"/>
</g>
</svg>
